<mxfile host="app.diagrams.net" modified="2022-01-17T08:54:18.687Z" agent="5.0 (Windows)" etag="O8u1Hm5Lg3PIioASeAw1" version="16.2.7" type="github">
  <diagram id="cZ358ruTbdpgIRas-WL8" name="Page-1">
    <mxGraphModel dx="569" dy="312" grid="1" gridSize="10" guides="1" tooltips="1" connect="1" arrows="1" fold="1" page="1" pageScale="1" pageWidth="827" pageHeight="1169" math="0" shadow="0">
      <root>
        <mxCell id="0" />
        <mxCell id="1" parent="0" />
        <mxCell id="m9rSCDMhcba78Vizk-lB-28" style="edgeStyle=orthogonalEdgeStyle;rounded=0;orthogonalLoop=1;jettySize=auto;html=1;exitX=1;exitY=0;exitDx=0;exitDy=0;entryX=0;entryY=0.5;entryDx=0;entryDy=0;elbow=vertical;curved=1;" parent="1" source="m9rSCDMhcba78Vizk-lB-1" target="m9rSCDMhcba78Vizk-lB-2" edge="1">
          <mxGeometry relative="1" as="geometry">
            <Array as="points">
              <mxPoint x="440" y="223" />
              <mxPoint x="440" y="80" />
            </Array>
          </mxGeometry>
        </mxCell>
        <mxCell id="m9rSCDMhcba78Vizk-lB-38" value="Authentifiziere Benutzer" style="edgeLabel;html=1;align=center;verticalAlign=middle;resizable=0;points=[];" parent="m9rSCDMhcba78Vizk-lB-28" vertex="1" connectable="0">
          <mxGeometry x="-0.2454" y="1" relative="1" as="geometry">
            <mxPoint as="offset" />
          </mxGeometry>
        </mxCell>
        <mxCell id="m9rSCDMhcba78Vizk-lB-30" style="edgeStyle=orthogonalEdgeStyle;curved=1;rounded=0;orthogonalLoop=1;jettySize=auto;html=1;exitX=1;exitY=1;exitDx=0;exitDy=0;entryX=0;entryY=0.5;entryDx=0;entryDy=0;elbow=vertical;" parent="1" source="m9rSCDMhcba78Vizk-lB-1" target="m9rSCDMhcba78Vizk-lB-6" edge="1">
          <mxGeometry relative="1" as="geometry">
            <Array as="points">
              <mxPoint x="440" y="337" />
              <mxPoint x="440" y="480" />
            </Array>
          </mxGeometry>
        </mxCell>
        <mxCell id="m9rSCDMhcba78Vizk-lB-37" value="Sende Benachrichtigung" style="edgeLabel;html=1;align=center;verticalAlign=middle;resizable=0;points=[];" parent="m9rSCDMhcba78Vizk-lB-30" vertex="1" connectable="0">
          <mxGeometry x="0.0132" y="2" relative="1" as="geometry">
            <mxPoint as="offset" />
          </mxGeometry>
        </mxCell>
        <mxCell id="m9rSCDMhcba78Vizk-lB-31" style="edgeStyle=orthogonalEdgeStyle;curved=1;rounded=0;orthogonalLoop=1;jettySize=auto;html=1;exitX=0.944;exitY=0.251;exitDx=0;exitDy=0;entryX=0;entryY=0;entryDx=0;entryDy=0;elbow=vertical;exitPerimeter=0;" parent="1" source="m9rSCDMhcba78Vizk-lB-1" target="m9rSCDMhcba78Vizk-lB-7" edge="1">
          <mxGeometry relative="1" as="geometry">
            <Array as="points">
              <mxPoint x="431" y="230" />
            </Array>
          </mxGeometry>
        </mxCell>
        <mxCell id="m9rSCDMhcba78Vizk-lB-39" value="Speicher Test" style="edgeLabel;html=1;align=center;verticalAlign=middle;resizable=0;points=[];" parent="m9rSCDMhcba78Vizk-lB-31" vertex="1" connectable="0">
          <mxGeometry x="-0.2581" y="-2" relative="1" as="geometry">
            <mxPoint x="37" y="-2" as="offset" />
          </mxGeometry>
        </mxCell>
        <mxCell id="m9rSCDMhcba78Vizk-lB-35" style="edgeStyle=orthogonalEdgeStyle;curved=1;rounded=0;orthogonalLoop=1;jettySize=auto;html=1;exitX=0.965;exitY=0.672;exitDx=0;exitDy=0;entryX=0;entryY=1;entryDx=0;entryDy=0;elbow=vertical;exitPerimeter=0;" parent="1" source="m9rSCDMhcba78Vizk-lB-1" target="m9rSCDMhcba78Vizk-lB-7" edge="1">
          <mxGeometry relative="1" as="geometry">
            <Array as="points">
              <mxPoint x="434" y="330" />
            </Array>
          </mxGeometry>
        </mxCell>
        <mxCell id="m9rSCDMhcba78Vizk-lB-43" value="Hole Ergebnis" style="edgeLabel;html=1;align=center;verticalAlign=middle;resizable=0;points=[];" parent="m9rSCDMhcba78Vizk-lB-35" vertex="1" connectable="0">
          <mxGeometry x="-0.1613" y="2" relative="1" as="geometry">
            <mxPoint x="30" y="2" as="offset" />
          </mxGeometry>
        </mxCell>
        <mxCell id="m9rSCDMhcba78Vizk-lB-36" style="edgeStyle=orthogonalEdgeStyle;curved=1;rounded=0;orthogonalLoop=1;jettySize=auto;html=1;exitX=1;exitY=0.5;exitDx=0;exitDy=0;entryX=0;entryY=0.25;entryDx=0;entryDy=0;elbow=vertical;" parent="1" source="m9rSCDMhcba78Vizk-lB-1" target="m9rSCDMhcba78Vizk-lB-7" edge="1">
          <mxGeometry relative="1" as="geometry">
            <Array as="points">
              <mxPoint x="440" y="255" />
            </Array>
          </mxGeometry>
        </mxCell>
        <mxCell id="m9rSCDMhcba78Vizk-lB-40" value="Hole Test" style="edgeLabel;html=1;align=center;verticalAlign=middle;resizable=0;points=[];" parent="m9rSCDMhcba78Vizk-lB-36" vertex="1" connectable="0">
          <mxGeometry x="-0.328" y="1" relative="1" as="geometry">
            <mxPoint x="49" as="offset" />
          </mxGeometry>
        </mxCell>
        <mxCell id="m9rSCDMhcba78Vizk-lB-41" style="edgeStyle=orthogonalEdgeStyle;curved=1;rounded=0;orthogonalLoop=1;jettySize=auto;html=1;exitX=1;exitY=0.5;exitDx=0;exitDy=0;entryX=0;entryY=0.75;entryDx=0;entryDy=0;elbow=vertical;" parent="1" source="m9rSCDMhcba78Vizk-lB-1" target="m9rSCDMhcba78Vizk-lB-7" edge="1">
          <mxGeometry relative="1" as="geometry">
            <Array as="points">
              <mxPoint x="440" y="305" />
            </Array>
          </mxGeometry>
        </mxCell>
        <mxCell id="m9rSCDMhcba78Vizk-lB-42" value="Speicher Ergebis" style="edgeLabel;html=1;align=center;verticalAlign=middle;resizable=0;points=[];" parent="m9rSCDMhcba78Vizk-lB-41" vertex="1" connectable="0">
          <mxGeometry x="-0.0589" y="4" relative="1" as="geometry">
            <mxPoint x="15" as="offset" />
          </mxGeometry>
        </mxCell>
        <mxCell id="m9rSCDMhcba78Vizk-lB-1" value="&lt;div&gt;Test&lt;/div&gt;&lt;div&gt;System&lt;br&gt;&lt;/div&gt;" style="ellipse;whiteSpace=wrap;html=1;aspect=fixed;" parent="1" vertex="1">
          <mxGeometry x="280" y="200" width="160" height="160" as="geometry" />
        </mxCell>
        <mxCell id="m9rSCDMhcba78Vizk-lB-2" value="&lt;div&gt;Authentifizierungs&lt;/div&gt;&lt;div&gt;service&lt;/div&gt;" style="whiteSpace=wrap;html=1;aspect=fixed;" parent="1" vertex="1">
          <mxGeometry x="550" y="30" width="100" height="100" as="geometry" />
        </mxCell>
        <mxCell id="m9rSCDMhcba78Vizk-lB-15" style="edgeStyle=orthogonalEdgeStyle;rounded=0;orthogonalLoop=1;jettySize=auto;html=1;exitX=0.5;exitY=0;exitDx=0;exitDy=0;entryX=0.033;entryY=0.683;entryDx=0;entryDy=0;entryPerimeter=0;elbow=vertical;" parent="1" source="m9rSCDMhcba78Vizk-lB-4" target="m9rSCDMhcba78Vizk-lB-1" edge="1">
          <mxGeometry relative="1" as="geometry" />
        </mxCell>
        <mxCell id="m9rSCDMhcba78Vizk-lB-27" value="Test durchführen" style="edgeLabel;html=1;align=center;verticalAlign=middle;resizable=0;points=[];" parent="m9rSCDMhcba78Vizk-lB-15" vertex="1" connectable="0">
          <mxGeometry x="0.0687" relative="1" as="geometry">
            <mxPoint as="offset" />
          </mxGeometry>
        </mxCell>
        <mxCell id="m9rSCDMhcba78Vizk-lB-4" value="&lt;div&gt;Schüler&lt;/div&gt;" style="whiteSpace=wrap;html=1;aspect=fixed;" parent="1" vertex="1">
          <mxGeometry x="80" y="360" width="80" height="80" as="geometry" />
        </mxCell>
        <mxCell id="m9rSCDMhcba78Vizk-lB-12" style="edgeStyle=orthogonalEdgeStyle;rounded=0;orthogonalLoop=1;jettySize=auto;html=1;exitX=0.409;exitY=0.995;exitDx=0;exitDy=0;entryX=0.008;entryY=0.347;entryDx=0;entryDy=0;elbow=vertical;entryPerimeter=0;exitPerimeter=0;" parent="1" source="m9rSCDMhcba78Vizk-lB-5" target="m9rSCDMhcba78Vizk-lB-1" edge="1">
          <mxGeometry relative="1" as="geometry" />
        </mxCell>
        <mxCell id="m9rSCDMhcba78Vizk-lB-21" value="&lt;div&gt;&lt;br&gt;&lt;/div&gt;&lt;div&gt;&lt;br&gt;&lt;/div&gt;" style="edgeLabel;html=1;align=center;verticalAlign=middle;resizable=0;points=[];" parent="m9rSCDMhcba78Vizk-lB-12" vertex="1" connectable="0">
          <mxGeometry x="0.3892" y="-1" relative="1" as="geometry">
            <mxPoint as="offset" />
          </mxGeometry>
        </mxCell>
        <mxCell id="m9rSCDMhcba78Vizk-lB-22" value="&lt;div&gt;Test bearbeiten&lt;/div&gt;" style="edgeLabel;html=1;align=center;verticalAlign=middle;resizable=0;points=[];" parent="m9rSCDMhcba78Vizk-lB-12" vertex="1" connectable="0">
          <mxGeometry x="0.0963" relative="1" as="geometry">
            <mxPoint x="22" as="offset" />
          </mxGeometry>
        </mxCell>
        <mxCell id="m9rSCDMhcba78Vizk-lB-13" style="edgeStyle=orthogonalEdgeStyle;rounded=0;orthogonalLoop=1;jettySize=auto;html=1;exitX=0.18;exitY=1.009;exitDx=0;exitDy=0;entryX=0;entryY=0.5;entryDx=0;entryDy=0;elbow=vertical;exitPerimeter=0;" parent="1" source="m9rSCDMhcba78Vizk-lB-5" target="m9rSCDMhcba78Vizk-lB-1" edge="1">
          <mxGeometry relative="1" as="geometry" />
        </mxCell>
        <mxCell id="m9rSCDMhcba78Vizk-lB-20" value="&lt;div&gt;Test erstellen&lt;/div&gt;" style="edgeLabel;html=1;align=center;verticalAlign=middle;resizable=0;points=[];" parent="m9rSCDMhcba78Vizk-lB-13" vertex="1" connectable="0">
          <mxGeometry x="0.4832" y="2" relative="1" as="geometry">
            <mxPoint x="-1" as="offset" />
          </mxGeometry>
        </mxCell>
        <mxCell id="m9rSCDMhcba78Vizk-lB-16" style="edgeStyle=orthogonalEdgeStyle;rounded=0;orthogonalLoop=1;jettySize=auto;html=1;exitX=0.602;exitY=0.995;exitDx=0;exitDy=0;entryX=0.083;entryY=0.201;entryDx=0;entryDy=0;elbow=vertical;entryPerimeter=0;exitPerimeter=0;" parent="1" source="m9rSCDMhcba78Vizk-lB-5" target="m9rSCDMhcba78Vizk-lB-1" edge="1">
          <mxGeometry relative="1" as="geometry" />
        </mxCell>
        <mxCell id="m9rSCDMhcba78Vizk-lB-23" value="Test löschen" style="edgeLabel;html=1;align=center;verticalAlign=middle;resizable=0;points=[];" parent="m9rSCDMhcba78Vizk-lB-16" vertex="1" connectable="0">
          <mxGeometry x="-0.1481" y="1" relative="1" as="geometry">
            <mxPoint x="25" as="offset" />
          </mxGeometry>
        </mxCell>
        <mxCell id="m9rSCDMhcba78Vizk-lB-19" style="edgeStyle=orthogonalEdgeStyle;rounded=0;orthogonalLoop=1;jettySize=auto;html=1;exitX=0.75;exitY=1;exitDx=0;exitDy=0;elbow=vertical;entryX=0.19;entryY=0.079;entryDx=0;entryDy=0;entryPerimeter=0;" parent="1" source="m9rSCDMhcba78Vizk-lB-5" target="m9rSCDMhcba78Vizk-lB-1" edge="1">
          <mxGeometry relative="1" as="geometry">
            <mxPoint x="316" y="200" as="targetPoint" />
            <Array as="points">
              <mxPoint x="140" y="213" />
              <mxPoint x="160" y="213" />
            </Array>
          </mxGeometry>
        </mxCell>
        <mxCell id="m9rSCDMhcba78Vizk-lB-24" value="&lt;div&gt;Testergebnisse abrufen&lt;/div&gt;" style="edgeLabel;html=1;align=center;verticalAlign=middle;resizable=0;points=[];" parent="m9rSCDMhcba78Vizk-lB-19" vertex="1" connectable="0">
          <mxGeometry x="-0.2651" y="3" relative="1" as="geometry">
            <mxPoint x="23" y="3" as="offset" />
          </mxGeometry>
        </mxCell>
        <mxCell id="m9rSCDMhcba78Vizk-lB-5" value="&lt;div&gt;Lehrer&lt;/div&gt;" style="whiteSpace=wrap;html=1;aspect=fixed;" parent="1" vertex="1">
          <mxGeometry x="80" y="120" width="80" height="80" as="geometry" />
        </mxCell>
        <mxCell id="m9rSCDMhcba78Vizk-lB-6" value="&lt;div&gt;Benachrichtigungs&lt;/div&gt;&lt;div&gt;service&lt;br&gt;&lt;/div&gt;" style="whiteSpace=wrap;html=1;aspect=fixed;" parent="1" vertex="1">
          <mxGeometry x="550" y="430" width="100" height="100" as="geometry" />
        </mxCell>
        <mxCell id="m9rSCDMhcba78Vizk-lB-7" value="&lt;div&gt;Database&lt;/div&gt;&lt;div&gt;service&lt;br&gt;&lt;/div&gt;" style="whiteSpace=wrap;html=1;aspect=fixed;" parent="1" vertex="1">
          <mxGeometry x="670" y="230" width="100" height="100" as="geometry" />
        </mxCell>
        <mxCell id="cn0wjxYw0LstM3rj3A5O-2" value="" style="endArrow=classic;html=1;rounded=0;exitX=1;exitY=0.5;exitDx=0;exitDy=0;entryX=0;entryY=0.5;entryDx=0;entryDy=0;" edge="1" parent="1" source="m9rSCDMhcba78Vizk-lB-1" target="m9rSCDMhcba78Vizk-lB-7">
          <mxGeometry width="50" height="50" relative="1" as="geometry">
            <mxPoint x="470" y="410" as="sourcePoint" />
            <mxPoint x="520" y="360" as="targetPoint" />
          </mxGeometry>
        </mxCell>
        <mxCell id="cn0wjxYw0LstM3rj3A5O-3" value="&lt;div&gt;Lösche Test&lt;/div&gt;" style="edgeLabel;html=1;align=center;verticalAlign=middle;resizable=0;points=[];" vertex="1" connectable="0" parent="cn0wjxYw0LstM3rj3A5O-2">
          <mxGeometry x="-0.1565" y="-2" relative="1" as="geometry">
            <mxPoint x="13" y="-2" as="offset" />
          </mxGeometry>
        </mxCell>
      </root>
    </mxGraphModel>
  </diagram>
</mxfile>
